<?xml version="1.0" encoding="UTF-8" standalone="no"?>
<svg
   height="32px"
   width="32px"
   fill="#000000"
   version="1.1"
   x="0px"
   y="0px"
   viewBox="0 0 208 176"
   enable-background="new 0 0 208 176"
   xml:space="preserve"
   id="svg1"
   sodipodi:docname="logo-mobile.svg"
   inkscape:version="1.3 (0e150ed, 2023-07-21)"
   xmlns:inkscape="http://www.inkscape.org/namespaces/inkscape"
   xmlns:sodipodi="http://sodipodi.sourceforge.net/DTD/sodipodi-0.dtd"
   xmlns="http://www.w3.org/2000/svg"
   xmlns:svg="http://www.w3.org/2000/svg"><defs
     id="defs1" /><sodipodi:namedview
     id="namedview1"
     pagecolor="#ffffff"
     bordercolor="#000000"
     borderopacity="0.25"
     inkscape:showpageshadow="2"
     inkscape:pageopacity="0.0"
     inkscape:pagecheckerboard="0"
     inkscape:deskcolor="#d1d1d1"
     inkscape:zoom="15.127533"
     inkscape:cx="19.40171"
     inkscape:cy="4.5281673"
     inkscape:window-width="2560"
     inkscape:window-height="1440"
     inkscape:window-x="1800"
     inkscape:window-y="0"
     inkscape:window-maximized="0"
     inkscape:current-layer="svg1" /><path
     id="path2"
     style="display:inline;fill:#000000;stroke-width:0.62527"
     d="m 82.762094,92.827034 c 0,0 -6.840802,-28.139209 -19.280485,-26.12196 -11.506132,1.865865 -13.162426,20.52343 -12.905496,29.698167 0.261093,9.323599 -0.310983,33.118949 12.594519,33.118949 11.817086,0 15.859775,-17.10368 19.591462,-36.695156 z m 7.463421,-32.341491 12.750025,0.155616 -11.506112,49.756151 c 0,0 2.180651,13.52744 8.396354,13.52744 7.934608,0 7.028448,-9.3312 7.028448,-9.3312 l 2.7673,0.002 c 0,0 0.52059,19.72779 -10.365853,20.03747 -8.639414,0.24587 -9.508279,-10.90587 -10.425569,-17.14763 0,0 -6.72992,17.16801 -25.54395,17.16801 -19.125011,0 -26.136769,-16.77701 -26.743978,-32.49685 C 35.776885,81.308536 42.315077,62.15546 62.393175,60.796653 79.528201,59.637 84.783464,83.808876 84.783464,83.808876 Z"
     sodipodi:nodetypes="csssccccsccscssscc" /><path
     style="display:inline;fill:#000000;stroke-width:0.62527"
     d="m 150.71798,60.580095 3.45656,0.111421 c 0,0 -12.82272,46.161864 -15.27575,56.085514 -2.45306,9.92369 -0.44601,10.03517 3.12204,10.03517 3.56806,0 9.25466,-9.92368 9.25466,-9.92368 h 2.89905 c 0,0 -4.01405,17.6895 -19.28982,17.6895 -15.27578,0 -8.79426,-17.38101 -7.24764,-23.15309 1.54662,-5.77207 6.13198,-21.518277 8.47683,-31.635954 3.02243,-13.041327 -8.36533,-7.50137 -8.36533,-7.50137 l -0.44599,-3.23348 z"
     id="path4"
     sodipodi:nodetypes="ccssccsssccc" /><circle
     style="display:inline;fill:#000000;stroke-width:0.62527"
     id="path5"
     cx="42.938038"
     cy="-149.65068"
     r="5.8514776"
     transform="rotate(90)" /><path
     style="display:inline;fill:#000000;stroke-width:0.62527"
     d="m 134.54829,20.144961 37.91281,2.53e-4 v 37.783814 h -4.36433 V 24.380545 H 134.5454 Z"
     id="path6"
     sodipodi:nodetypes="ccccccc" /></svg>
