<?xml version="1.0" encoding="UTF-8" standalone="no"?>
<!-- Created with Inkscape (http://www.inkscape.org/) -->

<svg
   width="179.65657mm"
   height="40.95974mm"
   viewBox="0 0 179.65657 40.95974"
   version="1.1"
   id="svg1"
   xml:space="preserve"
   inkscape:version="1.3 (0e150ed, 2023-07-21)"
   sodipodi:docname="logo-invert.svg"
   xmlns:inkscape="http://www.inkscape.org/namespaces/inkscape"
   xmlns:sodipodi="http://sodipodi.sourceforge.net/DTD/sodipodi-0.dtd"
   xmlns="http://www.w3.org/2000/svg"
   xmlns:svg="http://www.w3.org/2000/svg"><sodipodi:namedview
     id="namedview1"
     pagecolor="#ffffff"
     bordercolor="#000000"
     borderopacity="0.25"
     inkscape:showpageshadow="2"
     inkscape:pageopacity="0.0"
     inkscape:pagecheckerboard="0"
     inkscape:deskcolor="#d1d1d1"
     inkscape:document-units="mm"
     inkscape:zoom="1.1801279"
     inkscape:cx="235.144"
     inkscape:cy="-52.112996"
     inkscape:window-width="2560"
     inkscape:window-height="1440"
     inkscape:window-x="1800"
     inkscape:window-y="0"
     inkscape:window-maximized="0"
     inkscape:current-layer="layer2"
     showguides="false"><sodipodi:guide
       position="99.529994,183.86182"
       orientation="0,-1"
       id="guide2"
       inkscape:locked="false" /><sodipodi:guide
       position="99.683194,177.58738"
       orientation="1,0"
       id="guide3"
       inkscape:locked="false" /><sodipodi:guide
       position="76.828126,149.91177"
       orientation="1,0"
       id="guide4"
       inkscape:locked="false" /><sodipodi:guide
       position="108.18872,133.97277"
       orientation="1,0"
       id="guide1"
       inkscape:locked="false" /></sodipodi:namedview><defs
     id="defs1"><rect
       x="320.55228"
       y="780.4082"
       width="185.48164"
       height="660.3454"
       id="rect6" /></defs><g
     inkscape:groupmode="layer"
     id="layer2"
     inkscape:label="Layer 2"
     style="display:inline"
     transform="translate(-14.468966,-126.75587)"><path
       id="path2"
       style="display:inline;fill:#ffffff;stroke-width:0.200902"
       d="m 29.32772,150.10891 c 0,0 -2.197977,-9.04124 -6.194897,-8.39309 -3.696966,0.59951 -4.22914,6.59426 -4.146587,9.54214 0.08389,2.99571 -0.09992,10.64125 4.046669,10.64125 3.796877,0 5.095809,-5.49548 6.294815,-11.7903 z m 2.398027,-10.39145 4.096633,0.05 -3.696959,15.98685 c 0,0 0.700652,4.34642 2.697782,4.34642 2.54942,0 2.258268,-2.99815 2.258268,-2.99815 l 0.889144,6.1e-4 c 0,0 0.16727,6.33862 -3.330589,6.43812 -2.775878,0.079 -3.055048,-3.5041 -3.349777,-5.5096 0,0 -2.16235,5.51615 -8.207373,5.51615 -6.144942,0 -8.397848,-5.39052 -8.592947,-10.44137 -0.258744,-6.69852 1.842003,-12.85248 8.293176,-13.28907 5.505552,-0.3726 7.194089,7.39392 7.194089,7.39392 z"
       sodipodi:nodetypes="csssccccsccscssscc" /><path
       style="fill:#ffffff;stroke-width:0.200902"
       d="m 51.162217,139.74784 1.110606,0.0358 c 0,0 -4.119989,14.83199 -4.908159,18.0205 -0.788178,3.18852 -0.143306,3.22434 1.003125,3.22434 1.146431,0 2.973558,-3.18852 2.973558,-3.18852 h 0.931476 c 0,0 -1.289729,5.68371 -6.197896,5.68371 -4.908167,0 -2.825629,-5.58459 -2.328694,-7.43918 0.496935,-1.85459 1.970228,-6.91391 2.723637,-10.16476 0.97112,-4.19023 -2.687812,-2.41022 -2.687812,-2.41022 l -0.143299,-1.03893 z"
       id="path4"
       sodipodi:nodetypes="ccssccsssccc" /><circle
       style="fill:#ffffff;stroke-width:0.200902"
       id="path5"
       cx="134.07938"
       cy="-50.81929"
       r="1.880103"
       transform="rotate(90)" /><path
       style="fill:#ffffff;stroke-width:0.200902"
       d="m 45.966831,126.75587 12.181536,7e-5 v 12.14009 H 56.746092 V 128.11678 H 45.965904 Z"
       id="path6"
       sodipodi:nodetypes="ccccccc" /><path
       d="m 72.84303,163.54369 q -2.400597,0 -4.314123,-0.801 -1.878733,-0.83439 -2.957262,-2.26953 -1.078529,-1.46852 -1.113323,-3.37091 h 3.374761 q 0.173952,1.63539 1.391647,2.77015 1.252489,1.10139 3.6183,1.10139 2.261438,0 3.54872,-1.06801 1.322068,-1.10138 1.322068,-2.80353 0,-1.33501 -0.765411,-2.1694 -0.76541,-0.83438 -1.913518,-1.26826 -1.148116,-0.43388 -3.096428,-0.93451 -2.400605,-0.60075 -3.861839,-1.20151 -1.426448,-0.60076 -2.470184,-1.86902 -1.00895,-1.30165 -1.00895,-3.47104 0,-1.90239 1.00895,-3.37091 1.008941,-1.46851 2.818095,-2.26952 1.84394,-0.80101 4.209751,-0.80101 3.409554,0 5.566612,1.63539 2.191859,1.63539 2.470184,4.3388 h -3.479133 q -0.173952,-1.33502 -1.461235,-2.33628 -1.287281,-1.03463 -3.409546,-1.03463 -1.983114,0 -3.235595,1.00125 -1.252488,0.96789 -1.252488,2.73678 0,1.26828 0.730617,2.06928 0.76541,0.80101 1.84394,1.23488 1.113322,0.40051 3.096427,0.93451 2.400605,0.63413 3.861839,1.26827 1.461234,0.60075 2.504977,1.90239 1.043736,1.26826 1.043736,3.47104 0,1.70214 -0.939362,3.20403 -0.939363,1.50189 -2.78331,2.43641 -1.84394,0.9345 -4.348917,0.9345 z m 32.18198,4.17192 -4.83599,-4.63917 q -1.774361,0.46725 -3.6183,0.46725 -3.374761,0 -6.158063,-1.50189 -2.78331,-1.53527 -4.418504,-4.23867 -1.600401,-2.73677 -1.600401,-6.14107 0,-3.40428 1.600401,-6.10768 1.635194,-2.73678 4.418504,-4.23867 2.783302,-1.53526 6.158063,-1.53526 3.409554,0 6.19285,1.53526 2.78332,1.50189 4.38371,4.2053 1.60041,2.7034 1.60041,6.14105 0,3.33754 -1.53082,6.00757 -1.53082,2.67003 -4.20976,4.2053 l 6.12328,5.84068 z M 87.629347,151.66206 q 0,2.77016 1.148116,4.87282 1.182901,2.10263 3.200801,3.23739 2.052685,1.13477 4.592456,1.13477 2.539771,0 4.55766,-1.13477 2.05269,-1.13476 3.20081,-3.23739 1.1829,-2.10266 1.1829,-4.87282 0,-2.80352 -1.1829,-4.8728 -1.14812,-2.10264 -3.16601,-3.2374 -2.017904,-1.13476 -4.59246,-1.13476 -2.574557,0 -4.592456,1.13476 -2.0179,1.13476 -3.200801,3.2374 -1.148116,2.06928 -1.148116,4.8728 z M 116.0886,140.04745 v 14.71852 q 0,3.10391 1.56561,4.6058 1.6004,1.50189 4.4185,1.50189 2.78331,0 4.34891,-1.50189 1.60041,-1.50189 1.60041,-4.6058 v -14.71852 h 3.16601 v 14.68515 q 0,2.90366 -1.2177,4.90618 -1.2177,1.96914 -3.30518,2.93703 -2.05268,0.96788 -4.62724,0.96788 -2.57457,0 -4.66204,-0.96788 -2.0527,-0.96789 -3.27039,-2.93703 -1.1829,-2.00252 -1.1829,-4.90618 v -14.68515 z m 34.72172,18.08944 h -10.57656 l -1.94832,5.17317 h -3.33997 l 8.76743,-23.12911 h 3.65308 l 8.73263,23.12911 h -3.33997 z m -0.90457,-2.46978 -4.38371,-11.74812 -4.38371,11.74812 z m 22.78832,7.64295 -5.77537,-9.51197 h -3.82704 v 9.51197 h -3.16601 v -23.26261 h 7.82805 q 2.74851,0 4.62724,0.90113 1.91353,0.90113 2.8529,2.4364 0.93936,1.53526 0.93936,3.50441 0,2.40303 -1.46123,4.23868 -1.42645,1.83564 -4.31413,2.43639 l 6.08848,9.7456 z m -9.60241,-11.94837 h 4.66204 q 2.57455,0 3.86184,-1.20151 1.28727,-1.23489 1.28727,-3.27079 0,-2.06927 -1.28727,-3.20403 -1.2525,-1.13476 -3.86184,-1.13476 h -4.66204 z m 21.15313,-8.84447 v 7.77646 h 8.837 v 2.50315 h -8.837 v 8.01009 h 9.88074 v 2.50314 h -13.04676 v -23.29599 h 13.04676 v 2.50315 z"
       id="text1"
       style="font-size:44.8772px;font-family:Poppins;-inkscape-font-specification:Poppins;stroke-width:2.83966;fill:#ffffff"
       inkscape:label="text1"
       aria-label="SQUARE" /></g></svg>
