<?xml version="1.0" standalone="no"?>
<!DOCTYPE svg PUBLIC "-//W3C//DTD SVG 20010904//EN"
 "http://www.w3.org/TR/2001/REC-SVG-20010904/DTD/svg10.dtd">
<svg version="1.0" xmlns="http://www.w3.org/2000/svg"
 width="700.000000pt" height="700.000000pt" viewBox="0 0 700.000000 700.000000"
 preserveAspectRatio="xMidYMid meet">
<metadata>
Created by potrace 1.14, written by Peter Selinger 2001-2017
</metadata>
<g transform="translate(0.000000,700.000000) scale(0.100000,-0.100000)"
fill="#000000" stroke="none">
<path d="M4534 5781 c-2 -2 -4 -35 -4 -72 l0 -67 498 -1 c273 0 527 0 563 0
l66 -1 1 -552 c0 -304 1 -559 1 -565 1 -9 22 -13 71 -13 49 0 70 4 71 13 1 6
2 292 3 635 1 546 -1 622 -14 623 -52 3 -1252 3 -1256 0z"/>
<path d="M4955 5194 c-102 -52 -142 -160 -96 -259 60 -130 233 -154 325 -44
35 42 47 71 48 125 2 106 -85 194 -191 194 -31 0 -69 -7 -86 -16z"/>
<path d="M3034 4415 c-3 -9 -119 -505 -160 -687 l-18 -78 -41 118 c-116 330
-287 544 -496 617 -66 24 -105 29 -199 28 -302 -4 -564 -165 -711 -437 -37
-68 -94 -203 -104 -246 -1 -8 -10 -42 -18 -75 -9 -33 -19 -80 -22 -105 -4 -24
-8 -47 -10 -50 -18 -31 -28 -499 -12 -628 11 -98 46 -248 79 -341 90 -256 250
-440 464 -534 109 -48 185 -61 349 -61 124 0 163 4 229 22 165 47 298 126 420
248 63 63 159 195 187 257 16 34 24 34 27 0 5 -64 34 -213 53 -272 39 -123 81
-184 157 -228 39 -23 58 -28 122 -28 119 0 191 46 259 167 32 57 69 168 78
233 3 22 8 58 12 81 11 59 14 184 4 185 -34 5 -83 4 -83 0 -1 -3 -3 -31 -5
-61 -9 -141 -81 -230 -198 -246 -93 -13 -166 42 -230 171 -45 90 -90 254 -83
298 6 39 63 288 76 337 6 19 12 46 15 60 2 14 11 52 19 85 7 33 28 121 45 195
17 74 65 281 106 460 42 179 77 332 78 340 2 8 12 50 22 92 10 43 16 80 12 84
-11 11 -419 11 -423 -1z m-726 -231 c166 -81 339 -372 452 -759 l26 -90 -37
-180 c-143 -692 -288 -975 -531 -1039 -163 -42 -301 27 -385 195 -56 111 -74
182 -108 424 -18 127 -27 639 -13 760 23 201 55 329 113 450 113 235 301 328
483 239z"/>
<path d="M5030 4410 c-8 -5 -154 -59 -325 -120 -170 -61 -326 -117 -345 -125
-19 -8 -45 -17 -57 -20 -12 -3 -20 -11 -17 -18 2 -7 6 -28 8 -47 2 -19 4 -38
5 -42 0 -4 20 0 44 8 23 9 72 16 109 17 61 2 69 -1 98 -28 17 -16 34 -43 39
-60 11 -39 6 -150 -9 -206 -7 -24 -14 -51 -15 -60 -9 -47 -136 -518 -210 -781
-3 -10 -7 -26 -9 -35 -3 -10 -28 -99 -56 -198 -28 -99 -53 -193 -56 -209 -3
-16 -7 -32 -9 -36 -7 -12 -19 -145 -18 -207 2 -101 27 -168 82 -223 63 -63
125 -84 251 -84 273 -1 490 171 613 484 45 116 45 110 -10 110 l-49 0 -63 -94
c-72 -110 -165 -210 -213 -230 -36 -15 -107 -13 -139 5 -44 23 -50 102 -18
249 25 120 19 96 74 300 25 96 55 207 65 245 38 144 194 710 272 990 44 160
88 320 98 358 l18 67 -72 -1 c-39 0 -78 -4 -86 -9z"/>
</g>
</svg>
