<?xml version="1.0" encoding="utf-8"?>
<!-- Generator: Adobe Illustrator 19.2.1, SVG Export Plug-In . SVG Version: 6.00 Build 0)  -->
<svg version="1.1" id="layer" xmlns="http://www.w3.org/2000/svg" xmlns:xlink="http://www.w3.org/1999/xlink" x="0px" y="0px"
	 viewBox="0 0 652 652" style="enable-background:new 0 0 652 652;" xml:space="preserve">
<style type="text/css">
	.st0{clip-path:url(#SVGID_2_);fill:url(#SVGID_3_);}
	.st1{clip-path:url(#SVGID_5_);fill:url(#SVGID_6_);}
	.st2{clip-path:url(#SVGID_8_);fill:url(#SVGID_9_);}
	.st3{clip-path:url(#SVGID_11_);fill:url(#SVGID_12_);}
	.st4{clip-path:url(#SVGID_14_);fill:url(#SVGID_15_);}
	.st5{fill:#705E4E;}
</style>
<g>
	<defs>
		<path id="SVGID_1_" d="M468.5,168.3l1.9,4c3.5-17.2,24.1-15.2,24.1-15.2c23.9,2.1,45.3,30,56.8,48.1c17.9,28.2,30,61.7,30.6,95.4
			c0,0.6,0.5,0.7,0.9,0.5c0.8-0.6,1.6-1.1,2.3-1.7v0c0.9-0.7,1.9-1.5,2.8-2.2c0.6-0.5,1.3-1.1,1.9-1.6c0.4-0.4,0.7-1,0.7-2
			c-1-36.5-12.1-73-34.9-101.8c-11.3-14.3-31.9-34.1-52.6-38.1c0,0-2.8-0.6-6.9-0.6C488.5,153.2,476.1,155.4,468.5,168.3"/>
	</defs>
	<clipPath id="SVGID_2_">
		<use xlink:href="#SVGID_1_"  style="overflow:visible;"/>
	</clipPath>
	
		<linearGradient id="SVGID_3_" gradientUnits="userSpaceOnUse" x1="31.0405" y1="751.2086" x2="40.579" y2="751.2086" gradientTransform="matrix(12.8058 0 0 -12.8058 71.0348 9847.1533)">
		<stop  offset="0" style="stop-color:#E6E1DB"/>
		<stop  offset="0.3846" style="stop-color:#E6E1DB"/>
		<stop  offset="1" style="stop-color:#715F4E"/>
	</linearGradient>
	<rect x="468.5" y="153.2" class="st0" width="122.1" height="148.3"/>
</g>
<g>
	<defs>
		<path id="SVGID_4_" d="M444.2,240c5.6,43.6,42.8,77.2,88,77.2c12.2,0,23.7-2.4,34.3-6.9c1.3-0.6,1.2-1,0.5-1.2
			c-54.8,1.1-103-33.3-122.3-70.9c-0.1-0.1-0.2-0.1-0.3-0.1C444.1,238.2,444.1,239,444.2,240"/>
	</defs>
	<clipPath id="SVGID_5_">
		<use xlink:href="#SVGID_4_"  style="overflow:visible;"/>
	</clipPath>
	
		<linearGradient id="SVGID_6_" gradientUnits="userSpaceOnUse" x1="-29.3444" y1="793.9573" x2="-19.8054" y2="793.9573" gradientTransform="matrix(-12.8796 0 0 12.8796 183.5184 -9948.1797)">
		<stop  offset="0" style="stop-color:#FCCF00"/>
		<stop  offset="0.6209" style="stop-color:#E50020"/>
		<stop  offset="1" style="stop-color:#80167D"/>
	</linearGradient>
	<rect x="444.1" y="238.2" class="st1" width="123.6" height="79"/>
</g>
<g>
	<defs>
		<path id="SVGID_7_" d="M475.1,168.5l-0.2,0.2c0,0-10.8,7.8-18.3,18.3c-7.5,10.5-10.7,20.4-11.9,26.2c-0.5,2.7-0.8,4.6-0.9,5.8v1.3
			c0,0.1,0,0.2,0,0.2c0,0,0,0.1,0,0.1c0,0.4,0.2,0.6,0.4,0.7c0.5,0.3,1.9-0.5,2.8-1c0.7-0.4,3.1-1.6,5.2-2.5
			c6.7-2.9,14.3-5.3,22.2-7c-0.4-0.7-1-1.3-1.4-2c-3.2-4.8-5.7-10.4-7.1-15.7c-5.6,3.6-10.9,7.9-15.9,13
			c21.5-48.8,118.6-81.4,166.8,0.4v0c0.5,0.8,1,0.8,1,0.1c0-0.3-0.1-0.7-0.1-1.1c-0.1-0.3-0.2-0.7-0.3-1c-0.5-1.6-2.2-6-3.5-8.8
			c-15.9-32.6-46.6-47.5-77.9-47.5C514.4,148.2,492.5,155.3,475.1,168.5"/>
	</defs>
	<clipPath id="SVGID_8_">
		<use xlink:href="#SVGID_7_"  style="overflow:visible;"/>
	</clipPath>
	
		<linearGradient id="SVGID_9_" gradientUnits="userSpaceOnUse" x1="21.7711" y1="759.8014" x2="31.3107" y2="759.8014" gradientTransform="matrix(18.2429 0 0 -18.2429 46.6974 14034.1055)">
		<stop  offset="0" style="stop-color:#FCCF00"/>
		<stop  offset="0.6209" style="stop-color:#E50020"/>
		<stop  offset="1" style="stop-color:#80167D"/>
	</linearGradient>
	<rect x="443.9" y="124.6" class="st2" width="174" height="97"/>
</g>
<g>
	<defs>
		<path id="SVGID_10_" d="M482.4,158.4c-3.3,1-6.5,2.5-9.8,4.7c-0.5,0.5-1,0.9-1.5,1.4c-10.3,12.8-7.1,30.6,1.9,44.2
			c10.7,16.1,29.2,29,45.8,38.4c17.7,10,36.8,17.6,56.5,22.4c9.3,2.2,17.6,2.7,27.1,3.4c1.4,0.1,2.8,0.1,4.3,0.2
			c1.4,0,2.4-0.6,2.9-1.5c0.4-0.7,1.2-2.2,1.2-2.2c0.3-0.5,2-4.2,2.6-5.3c-31.7-1.4-62.1-15.3-89.2-30.8
			c-14.5-8.4-29.9-17.1-41.2-29.7c-7.8-8.7-14.2-20.7-12.4-32.4C471.8,166.1,476.2,160.6,482.4,158.4
			C482.4,158.4,482.4,158.4,482.4,158.4"/>
	</defs>
	<clipPath id="SVGID_11_">
		<use xlink:href="#SVGID_10_"  style="overflow:visible;"/>
	</clipPath>
	
		<linearGradient id="SVGID_12_" gradientUnits="userSpaceOnUse" x1="25.9971" y1="755.3835" x2="35.5362" y2="755.3835" gradientTransform="matrix(15.5854 0 0 -15.5854 59.5134 11988.7129)">
		<stop  offset="0" style="stop-color:#E6E1DB"/>
		<stop  offset="0.3846" style="stop-color:#E6E1DB"/>
		<stop  offset="1" style="stop-color:#715F4E"/>
	</linearGradient>
	<rect x="460.8" y="158.4" class="st3" width="152.5" height="114.6"/>
</g>
<g>
	<defs>
		<path id="SVGID_13_" d="M473.3,188.8c2.3,5.4,5.8,10.5,9.6,14.7c1.6,1.8,3.5,3.7,5.1,5.1c46.6-5.1,103.2,12,120.6,63.9
			c0.5-0.3,0.9-0.7,1.1-1.1c7-12.7,11.1-27.3,11.1-42.8c0-0.3,0-0.6,0-0.8c-0.1-1.9-1.6-5.3-4.2-8.5c-21-23.4-58.9-41.4-96.4-41.4
			C504,177.9,488,181.2,473.3,188.8"/>
	</defs>
	<clipPath id="SVGID_14_">
		<use xlink:href="#SVGID_13_"  style="overflow:visible;"/>
	</clipPath>
	
		<linearGradient id="SVGID_15_" gradientUnits="userSpaceOnUse" x1="21.636" y1="757.293" x2="31.1751" y2="757.293" gradientTransform="matrix(18.3975 0 0 -18.3975 46.113 14157.5254)">
		<stop  offset="0" style="stop-color:#FCCF00"/>
		<stop  offset="0.6209" style="stop-color:#E50020"/>
		<stop  offset="1" style="stop-color:#80167D"/>
	</linearGradient>
	<rect x="473.3" y="177.9" class="st4" width="147.4" height="94.7"/>
</g>
<g>
	<path class="st5" d="M51.6,479.3c0,2.3,0.1,4.6,0.5,6.5h-4.5l-0.4-3.4h-0.2c-1.5,2.1-4.4,4-8.3,4c-5.5,0-8.2-3.8-8.2-7.7
		c0-6.5,5.8-10.1,16.2-10v-0.6c0-2.2-0.6-6.2-6.1-6.2c-2.5,0-5.1,0.8-7,2l-1.1-3.2c2.2-1.4,5.5-2.4,8.9-2.4c8.2,0,10.2,5.6,10.2,11
		V479.3z M46.9,472.1c-5.4-0.1-11.4,0.8-11.4,6.1c0,3.2,2.1,4.7,4.6,4.7c3.5,0,5.7-2.2,6.5-4.5c0.2-0.5,0.3-1.1,0.3-1.6V472.1z"/>
	<path class="st5" d="M64.6,451.3c0.1,1.7-1.2,3-3.1,3c-1.7,0-3-1.4-3-3c0-1.7,1.3-3.1,3.1-3.1C63.4,448.2,64.6,449.5,64.6,451.3
		 M59.1,458.8H64v27h-4.9V458.8z"/>
	<path class="st5" d="M72.8,467.2c0-3.2-0.1-5.9-0.2-8.4h4.3l0.2,5.3h0.2c1.2-3.6,4.2-5.9,7.5-5.9c0.6,0,1,0.1,1.4,0.2v4.6
		c-0.5-0.1-1-0.2-1.7-0.2c-3.5,0-5.9,2.6-6.6,6.3c-0.1,0.7-0.2,1.5-0.2,2.3v14.4h-4.9V467.2z"/>
	<path class="st5" d="M91.6,467.7c0-3.5-0.1-6.2-0.2-8.8h4.4l0.2,4.6h0.1c2-3.3,5.2-5.2,9.6-5.2c6.5,0,11.4,5.5,11.4,13.7
		c0,9.7-5.9,14.5-12.3,14.5c-3.6,0-6.7-1.6-8.3-4.2h-0.1v14.7h-4.9V467.7z M96.4,474.8c0,0.7,0.1,1.4,0.2,2c0.9,3.4,3.8,5.7,7.4,5.7
		c5.2,0,8.2-4.2,8.2-10.4c0-5.4-2.8-10-8-10c-3.3,0-6.5,2.4-7.4,6.1c-0.2,0.6-0.3,1.3-0.3,2V474.8z"/>
	<path class="st5" d="M147.1,472.1c0,10-6.9,14.3-13.4,14.3c-7.3,0-12.9-5.3-12.9-13.9c0-9,5.9-14.3,13.4-14.3
		C141.9,458.2,147.1,463.9,147.1,472.1 M125.7,472.4c0,5.9,3.4,10.4,8.2,10.4c4.7,0,8.2-4.4,8.2-10.5c0-4.6-2.3-10.3-8.1-10.3
		C128.2,461.9,125.7,467.3,125.7,472.4"/>
	<path class="st5" d="M152.5,467.2c0-3.2-0.1-5.9-0.2-8.4h4.3l0.2,5.3h0.2c1.2-3.6,4.2-5.9,7.5-5.9c0.6,0,1,0.1,1.4,0.2v4.6
		c-0.5-0.1-1-0.2-1.7-0.2c-3.5,0-5.9,2.6-6.6,6.3c-0.1,0.7-0.2,1.5-0.2,2.3v14.4h-4.8V467.2z"/>
	<path class="st5" d="M179.3,452.4v6.5h7v3.7h-7v14.6c0,3.3,1,5.2,3.7,5.2c1.3,0,2.1-0.1,2.8-0.3l0.2,3.7c-0.9,0.4-2.4,0.7-4.3,0.7
		c-2.3,0-4.1-0.8-5.3-2.1c-1.4-1.4-1.9-3.8-1.9-7v-14.7h-4.2v-3.7h4.2v-5L179.3,452.4z"/>
	<path class="st5" d="M588.1,341.6L588.1,341.6c-5,3.6-10.3,6.9-16,9.6h0c-0.9,0.4-1.3,1.5-1.3,2.3v71h19.8v-81.2
		C590.7,339.3,588.1,341.6,588.1,341.6"/>
	<path class="st5" d="M103.9,388.5l-0.6,0.9c-8.5,13.9-17.9,19.8-31,19.8c-18.4,0-31.5-12.6-31.6-30.1c0-17.6,13.2-30.2,31.6-30.3
		c12.3,0,21.7,5.6,28.5,16.8l0.6,0.9l16.6-10.7l-0.7-0.9c-11.2-15.4-26.5-23.3-45-23.3c-29.7,0.1-51.4,20-51.5,47.4
		c0.1,27.3,21.8,47.2,51.5,47.2h0.1c20.1,0,36.4-9.2,46.8-26.4l0.5-0.8L103.9,388.5z"/>
	<polygon class="st5" points="200.5,333.6 200.5,366.5 200.3,366.5 154.8,366.5 154.7,366.5 154.7,366.4 154.7,333.6 134.9,333.6 
		134.9,424.3 154.7,424.3 154.7,383.5 200.5,383.5 200.5,424.3 220,424.3 220,333.6 	"/>
	<path class="st5" d="M338.1,422.7L292,333.6h-14.2l-46.4,90.6h20.5l11.5-22.3l0-0.1l0,0h43.2l0,0.1l11.8,22.3h20.5L338.1,422.7z
		 M284.9,360l0.1,0.1l12.8,24.4l0.1,0.2h-25.7l0.1-0.2l12.6-24.4L284.9,360z"/>
	<polygon class="st5" points="415.6,333.7 415.6,389.6 415.4,389.3 362.1,333.7 350.2,333.7 350.2,424.3 369.8,424.3 369.8,368.3 
		370.1,368.6 423.5,424.3 435.2,424.3 435.2,333.7 	"/>
	<path class="st5" d="M505.6,390.7h25l0,0.2v6l0,0c-6.5,8.4-14.9,12.4-25.9,12.4c-18.4,0-31.5-12.6-31.5-30.1
		c0-17.6,13.2-30.2,31.5-30.2c12.3,0,21.7,5.6,28.5,16.8l0.5,0.9l16.6-10.6l-0.6-0.9c-11.2-15.4-26.5-23.3-45-23.3
		c-29.7,0.1-51.4,20-51.5,47.4c0,27.3,21.8,47.2,51.5,47.2c19.5,0,35.3-8.3,45.4-23.9l0.2-0.3v-28.6h-44.6V390.7z"/>
	<path class="st5" d="M203.6,481.4c1.6,0.9,4.2,1.9,6.7,1.9c3.6,0,5.3-1.8,5.3-4.1c0-2.4-1.4-3.7-5.1-5.1c-5-1.8-7.4-4.5-7.4-7.9
		c0-4.5,3.7-8.1,9.6-8.1c2.8,0,5.3,0.7,6.8,1.7l-1.2,3.6c-1.1-0.6-3.1-1.6-5.7-1.6c-3,0-4.6,1.7-4.6,3.8c0,2.3,1.6,3.4,5.2,4.8
		c4.8,1.8,7.3,4.2,7.3,8.4c0,4.9-3.9,8.4-10.3,8.4c-3,0-5.9-0.8-7.8-2L203.6,481.4z"/>
	<path class="st5" d="M229,453.6c-1.9,0-3.2-1.5-3.2-3.3c0-1.8,1.3-3.2,3.3-3.2c1.9,0,3.2,1.4,3.2,3.2
		C232.3,452.2,231,453.6,229,453.6L229,453.6z M226.6,458.8h5.1v27.8h-5.1V458.8z"/>
	<path class="st5" d="M239.5,466.3c0-2.9-0.1-5.2-0.2-7.5h4.5l0.3,4.5h0.1c1.4-2.6,4.6-5.2,9.2-5.2c3.8,0,9.8,2.3,9.8,11.8v16.6
		h-5.1v-16c0-4.5-1.7-8.3-6.4-8.3c-3.3,0-5.9,2.4-6.8,5.2c-0.2,0.6-0.3,1.5-0.3,2.3v16.8h-5.1V466.3z"/>
	<path class="st5" d="M294.7,482.5c0,6.4-1.3,10.3-4,12.8c-2.8,2.5-6.7,3.3-10.2,3.3c-3.3,0-7-0.8-9.2-2.3l1.3-3.9
		c1.8,1.2,4.7,2.2,8.2,2.2c5.2,0,9-2.7,9-9.8v-3h-0.1c-1.5,2.6-4.5,4.7-8.8,4.7c-6.9,0-11.8-5.9-11.8-13.6c0-9.4,6.1-14.7,12.6-14.7
		c4.8,0,7.4,2.5,8.7,4.8h0.1l0.2-4.1h4.5c-0.2,2-0.2,4.2-0.2,7.6V482.5z M289.6,469.7c0-0.8-0.1-1.5-0.3-2.2c-0.9-3-3.3-5.4-7.1-5.4
		c-4.8,0-8.3,4.1-8.3,10.6c0,5.4,2.8,10,8.2,10c3.1,0,6-1.9,7-5.2c0.3-0.8,0.4-1.8,0.4-2.7V469.7z"/>
	<path class="st5" d="M322.1,479.9c0,2.4,0.1,4.8,0.4,6.7H318l-0.5-3.5h-0.2c-1.5,2.2-4.5,4.1-8.5,4.1c-5.6,0-8.5-4-8.5-8
		c0-6.7,6-10.4,16.7-10.3v-0.6c0-2.3-0.6-6.5-6.3-6.4c-2.6,0-5.3,0.8-7.3,2.1l-1.1-3.4c2.3-1.4,5.7-2.4,9.2-2.4
		c8.6,0,10.6,5.8,10.6,11.4V479.9z M317.2,472.4c-5.5-0.1-11.8,0.9-11.8,6.3c0,3.3,2.2,4.8,4.7,4.8c3.7,0,6-2.3,6.8-4.6
		c0.2-0.5,0.2-1.1,0.2-1.6V472.4z"/>
	<path class="st5" d="M329.8,467.8c0-3.6-0.1-6.4-0.2-9.1h4.5l0.3,4.8h0.1c2-3.4,5.3-5.4,9.8-5.4c6.8,0,11.8,5.7,11.8,14.1
		c0,10-6.1,14.9-12.6,14.9c-3.7,0-6.9-1.6-8.6-4.4h-0.1v15.1h-5.1V467.8z M334.8,475.2c0,0.7,0.1,1.4,0.2,2.1c0.9,3.5,4,5.9,7.5,5.9
		c5.3,0,8.4-4.4,8.4-10.7c0-5.6-2.9-10.3-8.2-10.3c-3.5,0-6.7,2.4-7.7,6.2c-0.1,0.7-0.3,1.4-0.3,2.1V475.2z"/>
	<path class="st5" d="M373.3,487.2c-7.5,0-13.3-5.5-13.3-14.3c0-9.3,6.1-14.7,13.8-14.7c8,0,13.4,5.8,13.4,14.2
		C387.2,482.7,380,487.2,373.3,487.2L373.3,487.2z M373.5,483.4c4.8,0,8.4-4.5,8.4-10.9c0-4.7-2.4-10.6-8.3-10.6
		c-5.9,0-8.5,5.5-8.5,10.8C365.1,478.8,368.6,483.4,373.5,483.4L373.5,483.4z"/>
	<path class="st5" d="M393.1,467.4c0-3.3-0.1-6.1-0.2-8.7h4.4l0.2,5.5h0.2c1.3-3.7,4.4-6.1,7.7-6.1c0.5,0,0.9,0.1,1.4,0.2v4.7
		c-0.6-0.1-1.1-0.1-1.8-0.1c-3.6,0-6.1,2.7-6.8,6.4c-0.1,0.7-0.2,1.5-0.2,2.4v14.8h-5.1L393.1,467.4z"/>
	<path class="st5" d="M413.9,473.5c0.1,6.8,4.4,9.7,9.5,9.7c3.6,0,5.9-0.6,7.7-1.4l0.9,3.6c-1.8,0.8-4.9,1.8-9.3,1.8
		c-8.5,0-13.7-5.7-13.7-14c0-8.4,5-15,13.1-15c9.1,0,11.4,8,11.4,13.1c0,1-0.1,1.8-0.2,2.4L413.9,473.5z M428.7,469.9
		c0.1-3.2-1.3-8.2-6.9-8.2c-5.2,0-7.4,4.7-7.8,8.2H428.7z"/>
</g>
</svg>
