<svg viewBox="0 0 290 102" fill="none" xmlns="http://www.w3.org/2000/svg"><path d="M147.8 0.695312H50.8996C23.1996 0.695312 0.599609 23.2953 0.599609 50.9953C0.599609 78.6953 23.1996 101.295 50.8996 101.295H147.8C148 101.295 148.1 101.295 148.2 101.195H148.3C148.4 101.195 148.5 101.095 148.6 101.095C148.6 101.095 148.7 101.095 148.7 100.995C148.8 100.895 148.9 100.895 149 100.795C149 100.795 149 100.795 149.1 100.695C149.2 100.595 149.3 100.495 149.4 100.395C149.4 100.395 149.4 100.395 149.4 100.295C149.5 100.195 149.5 100.095 149.5 99.9953V99.8953C149.5 99.7953 149.5 99.6953 149.6 99.5953V99.4953V2.59531C149.7 1.49531 148.8 0.695312 147.8 0.695312ZM145.9 91.4953L102.4 4.49531H145.9V91.4953ZM96.2996 4.49531L89.2996 18.4953C84.0996 12.3953 77.4996 7.59531 69.9996 4.49531H96.2996V4.49531ZM52.7996 91.4953V4.49531C66.7996 5.09531 79.2996 11.8953 87.3996 22.1953L52.7996 91.4953ZM89.8996 25.6953C94.6996 32.9953 97.3996 41.6953 97.3996 51.0953C97.3996 75.6953 78.1996 95.8953 53.9996 97.4953L89.8996 25.6953ZM4.39961 50.9953C4.39961 25.9953 24.2996 5.49531 49.0996 4.49531V97.4953C24.1996 96.4953 4.39961 75.9953 4.39961 50.9953ZM69.9996 97.5953C88.2996 90.0953 101.2 71.9953 101.2 51.0953C101.2 40.1953 97.6996 30.0953 91.7996 21.8953L99.2996 6.89531L144.7 97.6953H69.9996V97.5953Z" fill="#EA5504"/><path d="M189.5 38.3984H186.6C186.5 38.3984 186.4 38.4984 186.3 38.5984L181.2 49.5984L176 38.5984C176 38.4984 175.8 38.3984 175.7 38.3984H172.9C172.7 38.3984 172.6 38.4984 172.6 38.6984V57.7984C172.6 57.9984 172.7 58.0984 172.9 58.0984H175.7C175.9 58.0984 176 57.9984 176 57.7984V46.2984L179.9 54.0984C179.9 54.1984 180.1 54.2984 180.2 54.2984H182.3C182.4 54.2984 182.5 54.1984 182.6 54.0984L186.3 46.2984V57.6984C186.3 57.8984 186.4 57.9984 186.6 57.9984H189.4C189.6 57.9984 189.7 57.8984 189.7 57.6984V38.6984C189.8 38.4984 189.6 38.3984 189.5 38.3984Z" fill="#EA5504"/><path d="M240.2 46.5969C241 46.5969 241.8 46.9969 242.3 47.6969C242.4 47.7969 242.5 47.8969 242.6 47.9969C242.7 48.0969 242.7 48.0969 242.8 48.0969C242.9 48.0969 243 48.0969 243 47.9969L244.8 46.1969C244.9 46.0969 244.9 45.8969 244.8 45.7969C243.5 44.3969 242.1 43.7969 240.2 43.7969C236.4 43.7969 234.5 46.6969 234.5 48.6969C234.5 48.7969 234.5 52.9969 234.5 53.0969C234.5 56.0969 237 58.2969 240.2 58.2969C242.1 58.2969 243.4 57.6969 244.7 56.2969C244.8 56.1969 244.8 55.9969 244.7 55.8969L243 54.0969C242.9 53.9969 242.9 53.9969 242.8 53.9969C242.7 53.9969 242.6 53.9969 242.6 54.0969C242.3 54.3969 242.1 54.5969 241.9 54.7969C241.5 55.1969 240.9 55.3969 240.2 55.3969C238.8 55.3969 237.7 54.2969 237.7 52.8969V49.2969C237.7 47.6969 238.8 46.5969 240.2 46.5969Z" fill="#EA5504"/><path d="M268.4 58.0984H270.1C270.3 58.0984 270.4 57.9984 270.4 57.7984V55.4984C270.4 55.2984 270.3 55.1984 270.1 55.1984H268.9C268.1 55.1984 267.7 54.8984 267.7 53.8984V38.6984C267.7 38.4984 267.6 38.3984 267.4 38.3984H264.7C264.5 38.3984 264.4 38.4984 264.4 38.6984V53.9984C264.5 55.9984 265.5 58.0984 268.4 58.0984Z" fill="#EA5504"/><path d="M289.299 81.2953C289.199 81.1953 289.199 81.1953 289.099 81.1953H286.199C286.099 81.1953 285.999 81.2953 285.899 81.3953L283.099 90.0953L280.199 81.3953C280.199 81.2953 279.999 81.1953 279.899 81.1953H277.099C276.999 81.1953 276.899 81.1953 276.899 81.2953C276.799 81.3953 276.799 81.4953 276.899 81.5953L281.499 94.3953L280.799 96.3953C280.399 97.3953 280.099 97.5953 279.199 97.5953H278.699C278.499 97.5953 278.399 97.6953 278.399 97.8953V100.395C278.399 100.595 278.499 100.695 278.699 100.695H279.599C280.899 100.695 281.799 100.295 282.499 99.5953C282.899 99.1953 283.299 98.5953 283.499 97.7953L289.399 81.4953C289.299 81.4953 289.299 81.3953 289.299 81.2953Z" fill="#EA5504"/><path d="M181.999 14.5969V1.59687C181.999 1.39687 181.899 1.29688 181.699 1.29688H178.899C178.699 1.29688 178.599 1.39687 178.599 1.59687V14.3969C178.599 16.6969 177.399 17.8969 175.499 17.8969C173.799 17.8969 173.099 16.9969 172.599 16.3969C172.499 16.2969 172.299 16.2969 172.199 16.3969L169.899 17.7969C169.799 17.8969 169.799 17.9969 169.799 17.9969C169.799 18.0969 169.799 18.1969 169.899 18.1969C170.699 19.3969 172.499 21.0969 175.599 21.0969C179.399 20.9969 181.999 18.3969 181.999 14.5969Z" fill="#EA5504"/><path d="M203.1 26.3938H205.8C206 26.3938 206.1 26.2938 206.1 26.0938V21.3938V19.9937C207 20.6937 208 21.0938 209.2 21.0938C212 21.0938 214.3 18.7937 214.3 15.9937V11.6937C214.3 8.89375 212 6.59375 209.2 6.59375C208 6.59375 206.9 6.99375 206.1 7.69375V6.99375C206.1 6.79375 206 6.69375 205.8 6.69375H203.2C203 6.69375 202.9 6.79375 202.9 6.99375V26.0938C202.9 26.1938 203 26.3938 203.1 26.3938ZM206.1 11.8937C206.1 10.4937 207.2 9.39375 208.6 9.39375C210 9.39375 211.1 10.4937 211.1 11.8937V15.4937C211.1 16.8937 210 17.9937 208.6 17.9937C207.2 17.9937 206.1 16.8937 206.1 15.4937V11.8937Z" fill="#EA5504"/><path d="M236.9 80.9922C235.7 80.9922 234.6 81.3922 233.8 82.0922V81.4922C233.8 81.2922 233.7 81.1922 233.5 81.1922H230.9C230.7 81.1922 230.6 81.2922 230.6 81.4922V100.592C230.6 100.792 230.7 100.892 230.9 100.892H233.6C233.8 100.892 233.9 100.792 233.9 100.592V95.8922V94.4922C234.8 95.1922 235.8 95.5922 237 95.5922C239.8 95.5922 242.1 93.2922 242.1 90.4922V86.1922C242 83.1922 239.7 80.9922 236.9 80.9922ZM238.9 89.9922C238.9 91.3922 237.8 92.4922 236.4 92.4922C235 92.4922 233.9 91.3922 233.9 89.9922V86.3922C233.9 84.9922 235 83.8922 236.4 83.8922C237.8 83.8922 238.9 84.9922 238.9 86.3922V89.9922Z" fill="#EA5504"/><path d="M245.9 20.5938V11.8937C245.9 10.0937 245.5 8.79375 244.5 7.89375C243.6 6.99375 242.4 6.59375 241 6.59375C239.8 6.59375 238.6 6.99375 237.7 7.69375V6.99375C237.7 6.79375 237.6 6.69375 237.4 6.69375H234.8C234.6 6.69375 234.5 6.79375 234.5 6.99375V20.5938C234.5 20.7938 234.6 20.8938 234.8 20.8938H237.5C237.7 20.8938 237.8 20.7938 237.8 20.5938V11.7938C237.8 10.4938 238.9 9.39375 240.2 9.39375C241.5 9.39375 242.6 10.4938 242.6 11.7938V14.9937V15.0938V20.4937C242.6 20.6937 242.7 20.7938 242.9 20.7938H245.6C245.7 20.8938 245.9 20.7938 245.9 20.5938Z" fill="#EA5504"/><path d="M268.6 80.9922C267.4 80.9922 266.2 81.3922 265.3 82.0922V81.3922C265.3 81.1922 265.2 81.0922 265 81.0922H262.4C262.2 81.0922 262.1 81.1922 262.1 81.3922V94.9922C262.1 95.1922 262.2 95.2922 262.4 95.2922H265.1C265.3 95.2922 265.4 95.1922 265.4 94.9922V86.1922C265.4 84.8922 266.5 83.7922 267.8 83.7922C269.1 83.7922 270.2 84.8922 270.2 86.1922V89.3922V89.4922V94.8922C270.2 95.0922 270.3 95.1922 270.5 95.1922H273.2C273.4 95.1922 273.5 95.0922 273.5 94.8922V86.1922C273.5 84.3922 273.1 83.0922 272.1 82.1922C271.2 81.4922 270 80.9922 268.6 80.9922Z" fill="#EA5504"/><path d="M220.3 80.9922C218.6 80.9922 217.2 81.5922 216.2 82.7922C215.3 81.5922 214 80.9922 212.4 80.9922C211.2 80.9922 210 81.3922 209.2 82.0922V81.3922C209.2 81.1922 209.1 81.0922 208.9 81.0922H206.3C206.1 81.0922 206 81.1922 206 81.3922V94.9922C206 95.1922 206.1 95.2922 206.3 95.2922H209C209.1 95.2922 209.2 95.1922 209.3 95.0922V86.2922C209.3 84.9922 210.4 83.8922 211.7 83.8922C213 83.8922 214.1 84.9922 214.1 86.2922V86.3922C214.1 86.4922 214.1 86.5922 214.1 86.7922V95.0922C214.1 95.2922 214.2 95.3922 214.4 95.3922H217.1C217.2 95.3922 217.3 95.2922 217.4 95.1922V86.3922C217.4 85.0922 218.5 83.9922 219.8 83.9922C221.1 83.9922 222.2 85.0922 222.2 86.3922V86.4922C222.2 86.5922 222.2 86.6922 222.2 86.8922V95.1922C222.2 95.3922 222.3 95.4922 222.5 95.4922H225.2C225.4 95.4922 225.5 95.3922 225.5 95.1922V86.4922C225.5 84.7922 225 83.4922 224 82.4922C223 81.4922 221.7 80.9922 220.3 80.9922Z" fill="#EA5504"/><path d="M218.5 58.0984H221.1C221.3 58.0984 221.4 57.9984 221.4 57.7984V38.6984C221.4 38.4984 221.3 38.3984 221.1 38.3984H218.4C218.2 38.3984 218.1 38.4984 218.1 38.6984V44.6984C217.2 44.0984 216.2 43.6984 215 43.6984C212.2 43.6984 209.9 45.9984 209.9 48.7984V53.0984C209.9 55.8984 212.2 58.1984 215 58.1984C216.2 58.1984 217.3 57.7984 218.1 57.0984V57.6984C218.2 57.8984 218.4 58.0984 218.5 58.0984ZM218.2 52.6984C218.2 54.0984 217.1 55.1984 215.7 55.1984C214.3 55.1984 213.2 54.0984 213.2 52.6984V49.0984C213.2 47.6984 214.3 46.5984 215.7 46.5984C217.1 46.5984 218.2 47.6984 218.2 49.0984V52.6984Z" fill="#EA5504"/><path d="M205.799 52.0969C205.999 52.0969 206.099 51.9969 206.099 51.7969V51.3969V51.1969V50.6969V48.8969C206.099 46.0969 203.499 43.7969 200.399 43.7969C199.899 43.7969 199.399 43.8969 198.999 43.9969C198.899 43.9969 198.899 43.9969 198.799 43.9969H198.699C198.599 43.9969 198.499 44.0969 198.399 44.0969C196.299 44.7969 194.699 46.6969 194.699 48.8969V53.1969C194.699 55.2969 196.199 57.0969 198.199 57.8969C198.599 58.0969 199.199 58.1969 199.699 58.2969C199.799 58.2969 199.799 58.2969 199.899 58.2969C199.999 58.2969 200.199 58.2969 200.299 58.2969C200.299 58.2969 200.299 58.2969 200.399 58.2969C200.399 58.2969 200.399 58.2969 200.499 58.2969C200.499 58.2969 200.499 58.2969 200.599 58.2969C203.099 58.2969 204.499 57.4969 205.799 56.0969C205.899 55.9969 205.899 55.9969 205.899 55.8969C205.899 55.7969 205.899 55.6969 205.799 55.6969L204.099 54.0969C203.999 53.9969 203.799 53.9969 203.699 54.0969C202.899 54.9969 202.199 55.3969 200.699 55.3969H200.599C199.199 55.3969 198.099 54.2969 198.099 52.8969V52.1969H205.799V52.0969ZM197.799 49.0969C197.799 47.6969 198.899 46.5969 200.299 46.5969C201.699 46.5969 202.799 47.6969 202.799 49.0969V49.5969H197.799V49.0969Z" fill="#EA5504"/><path d="M195.6 80.9922C192.4 80.9922 189.9 83.2922 189.9 86.0922V90.3922C189.9 93.1922 192.5 95.4922 195.6 95.4922C198.7 95.4922 201.3 93.1922 201.3 90.3922V86.0922C201.3 83.2922 198.8 80.9922 195.6 80.9922ZM198.1 89.9922C198.1 91.3922 197 92.4922 195.6 92.4922C194.2 92.4922 193.1 91.3922 193.1 89.9922V86.4922C193.1 85.0922 194.2 83.9922 195.6 83.9922C197 83.9922 198.1 85.0922 198.1 86.4922V89.9922Z" fill="#EA5504"/><path d="M191 12.3937C188.5 12.3937 186.2 13.8937 186.3 16.5938C186.3 17.7938 186.7 18.9938 187.4 19.6938C188.3 20.5938 189.5 20.9937 191.2 20.9937C192.6 20.9937 193.6 20.6937 194.5 19.9937C194.9 20.4937 195.8 20.8938 196.5 20.8938C197.5 20.8938 198.3 20.5938 198.9 20.3938C199.1 20.2938 199.1 20.1938 199.1 20.0938L198.8 18.3938C198.8 18.3938 198.8 18.3938 198.8 18.2938C198.8 18.2938 198.8 18.1938 198.7 18.1938H198.6C198.6 18.1938 198.6 18.1938 198.5 18.1938H198.3C198 18.2938 197.7 18.3938 197.7 17.7938V16.5938V11.5937C197.7 9.29375 196.7 6.59375 191.9 6.59375C189.9 6.59375 188.4 7.29375 187.2 8.29375C187 8.49375 187 8.59375 187.1 8.79375L188.5 10.4938C188.6 10.6938 188.6 10.6937 188.7 10.6937C188.8 10.6937 188.9 10.6937 188.9 10.5937C189.5 10.0937 190.2 9.39375 191.7 9.39375C193.6 9.39375 194.3 10.0937 194.3 11.5937V12.2938H191V12.3937ZM194.4 15.6938C194.4 16.5938 194.2 17.1937 193.9 17.4937C193.3 18.0937 192.5 18.2938 191.1 18.1938C190.2 18.1938 189.5 17.4937 189.5 16.5938C189.5 15.6938 190.2 14.9937 191.1 14.9937H194.4V15.6938Z" fill="#EA5504"/><path d="M230.7 19.9922L230.4 18.2922C230.4 18.2922 230.4 18.2922 230.4 18.1922C230.4 18.1922 230.4 18.0922 230.3 18.0922H230.2C230.2 18.0922 230.2 18.0922 230.1 18.0922H229.9C229.6 18.1922 229.3 18.2922 229.3 17.6922V16.4922V11.4922C229.3 9.19219 228.3 6.49219 223.5 6.49219C221.5 6.49219 220 7.19219 218.8 8.19219C218.6 8.39219 218.6 8.49219 218.7 8.69219L220.1 10.3922C220.2 10.4922 220.3 10.5922 220.4 10.5922C220.5 10.5922 220.6 10.5922 220.6 10.4922C221.2 9.99219 221.9 9.29219 223.4 9.29219C225.3 9.29219 226 9.99219 226 11.4922V12.1922H222.6C220.1 12.1922 217.8 13.6922 217.9 16.3922C217.9 17.5922 218.3 18.7922 219 19.4922C219.9 20.3922 221.1 20.7922 222.8 20.7922C224.2 20.7922 225.2 20.4922 226.1 19.7922C226.5 20.2922 227.4 20.6922 228.1 20.6922C229.1 20.6922 229.9 20.3922 230.5 20.1922C230.7 20.1922 230.8 20.0922 230.7 19.9922ZM226 15.6922C226 16.5922 225.8 17.1922 225.5 17.4922C224.9 18.0922 224.1 18.2922 222.7 18.1922C221.8 18.1922 221.1 17.4922 221.1 16.5922C221.1 15.6922 221.8 14.9922 222.7 14.9922H226V15.6922Z" fill="#EA5504"/><path d="M260.499 55.3953C260.499 55.3953 260.399 55.3953 260.499 55.3953C260.399 55.2953 260.399 55.2953 260.299 55.2953C260.299 55.2953 260.299 55.2953 260.199 55.2953H259.999C259.699 55.3953 259.399 55.4953 259.399 54.8953V53.6953V48.6953C259.399 46.3953 258.399 43.6953 253.599 43.6953C251.599 43.6953 250.099 44.3953 248.899 45.3953C248.699 45.5953 248.699 45.6953 248.799 45.8953L250.199 47.5953C250.299 47.6953 250.399 47.7953 250.499 47.7953C250.599 47.7953 250.699 47.7953 250.699 47.6953C251.299 47.1953 251.999 46.4953 253.499 46.4953C255.399 46.4953 256.099 47.1953 256.099 48.6953V49.3953H252.699C250.199 49.3953 247.899 50.8953 247.999 53.5953C247.999 54.7953 248.399 55.9953 249.099 56.6953C249.999 57.5953 251.199 57.9953 252.899 57.9953C254.299 57.9953 255.299 57.6953 256.199 56.9953C256.599 57.4953 257.499 57.8953 258.199 57.8953C259.199 57.8953 259.999 57.5953 260.599 57.3953C260.799 57.2953 260.799 57.1953 260.799 57.0953L260.499 55.3953C260.499 55.4953 260.499 55.4953 260.499 55.3953ZM256.099 52.8953C256.099 53.7953 255.899 54.3953 255.599 54.6953C254.999 55.2953 254.199 55.4953 252.799 55.3953C251.899 55.3953 251.199 54.6953 251.199 53.7953C251.199 52.8953 251.899 52.1953 252.799 52.1953H256.099V52.8953Z" fill="#EA5504"/><path d="M258.099 92.6922C257.999 92.5922 257.999 92.5922 257.899 92.5922C257.899 92.5922 257.899 92.5922 257.799 92.5922H257.599C257.299 92.6922 256.999 92.7922 256.999 92.1922V90.9922V85.9922C256.999 83.6922 255.999 80.9922 251.199 80.9922C249.199 80.9922 247.699 81.6922 246.499 82.6922C246.299 82.8922 246.299 82.9922 246.399 83.1922L247.799 84.8922C247.899 84.9922 247.999 85.0922 248.099 85.0922C248.199 85.0922 248.299 85.0922 248.299 84.9922C248.899 84.4922 249.599 83.7922 251.099 83.7922C252.999 83.7922 253.699 84.4922 253.699 85.9922V86.6922H250.299C247.799 86.6922 245.499 88.1922 245.599 90.8922C245.599 92.0922 245.999 93.2922 246.699 93.9922C247.599 94.8922 248.799 95.2922 250.499 95.2922C251.899 95.2922 252.899 94.9922 253.799 94.2922C254.199 94.7922 255.099 95.1922 255.799 95.1922C256.799 95.1922 257.599 94.8922 258.199 94.6922C258.399 94.5922 258.399 94.4922 258.399 94.3922L258.099 92.6922ZM253.699 90.0922C253.699 90.9922 253.499 91.5922 253.199 91.8922C252.599 92.4922 251.799 92.6922 250.399 92.5922C249.499 92.5922 248.799 91.8922 248.799 90.9922C248.799 90.0922 249.499 89.3922 250.399 89.3922H253.699V90.0922Z" fill="#EA5504"/><path d="M185.8 88.9969H182.9C182.8 88.9969 182.6 89.0969 182.6 89.1969C182.6 89.2969 182.6 89.2969 182.5 89.3969C182.2 90.9969 180.7 92.1969 179 92.1969C177 92.1969 175.4 90.5969 175.4 88.5969V82.0969C175.4 80.0969 177 78.4969 179 78.4969C180.3 78.4969 181.5 79.1969 182.1 80.2969C182.2 80.4969 182.3 80.5969 182.3 80.7969C182.3 80.7969 182.3 80.7969 182.3 80.8969C182.3 80.9969 182.3 81.0969 182.4 81.0969V81.1969C182.4 81.2969 182.4 81.3969 182.5 81.4969C182.5 81.5969 182.6 81.6969 182.8 81.6969H185.7C185.8 81.6969 185.9 81.6969 185.9 81.5969C185.9 81.4969 186 81.4969 185.9 81.3969C185.9 81.2969 185.9 81.2969 185.9 81.1969C185.4 77.7969 182.5 75.2969 179 75.2969C175.1 75.2969 172 78.3969 172 82.2969V88.1969C172 92.0969 175.1 95.1969 179 95.1969C182.4 95.1969 185.2 92.7969 185.9 89.5969C185.9 89.3969 186 89.1969 186 88.9969C186 88.9969 186 88.8969 185.9 88.8969C185.9 89.0969 185.9 88.9969 185.8 88.9969Z" fill="#EA5504"/><path d="M229.699 43.7969H226.999C226.799 43.7969 226.699 43.8969 226.699 44.0969V57.7969C226.699 57.9969 226.799 58.0969 226.999 58.0969H229.699C229.899 58.0969 229.999 57.9969 229.999 57.7969V44.0969C229.999 43.8969 229.899 43.7969 229.699 43.7969Z" fill="#EA5504"/><path d="M228.4 37.8984C227.3 37.8984 226.4 38.7984 226.4 39.8984C226.4 40.9984 227.3 41.8984 228.4 41.8984C229.5 41.8984 230.4 40.9984 230.4 39.8984C230.3 38.6984 229.4 37.8984 228.4 37.8984Z" fill="#EA5504"/></svg>