<?xml version="1.0" encoding="UTF-8" standalone="no"?>
<!-- Created with Inkscape (http://www.inkscape.org/) -->

<svg
   width="52.401691mm"
   height="19.832399mm"
   viewBox="0 0 52.401691 19.832399"
   version="1.1"
   id="svg1"
   xml:space="preserve"
   inkscape:version="1.3 (0e150ed, 2023-07-21)"
   sodipodi:docname="Vantec.svg"
   xmlns:inkscape="http://www.inkscape.org/namespaces/inkscape"
   xmlns:sodipodi="http://sodipodi.sourceforge.net/DTD/sodipodi-0.dtd"
   xmlns="http://www.w3.org/2000/svg"
   xmlns:svg="http://www.w3.org/2000/svg"><sodipodi:namedview
     id="namedview1"
     pagecolor="#ffffff"
     bordercolor="#000000"
     borderopacity="0.25"
     inkscape:showpageshadow="2"
     inkscape:pageopacity="0.0"
     inkscape:pagecheckerboard="0"
     inkscape:deskcolor="#d1d1d1"
     inkscape:document-units="mm"
     inkscape:zoom="3.2987059"
     inkscape:cx="80.334535"
     inkscape:cy="41.683013"
     inkscape:window-width="1800"
     inkscape:window-height="1126"
     inkscape:window-x="0"
     inkscape:window-y="43"
     inkscape:window-maximized="0"
     inkscape:current-layer="layer1" /><defs
     id="defs1" /><g
     inkscape:label="Layer 1"
     inkscape:groupmode="layer"
     id="layer1"
     transform="translate(-78.779157,-138.56574)"><path
       style="fill:#ff0000;stroke-width:0.265389"
       d="m 78.779157,158.37982 6.444869,-11.3193 6.353322,11.33762 z"
       id="path1" /><path
       style="fill:#999999;stroke-width:0.264583"
       d="m 85.296923,146.80744 4.661817,-8.2417 h 11.39202 l -9.387278,16.81754 h -1.575154 l 4.967968,-8.56443 h -3.806492 l -1.304671,2.6934 -1.535317,-2.65924 z"
       id="path2"
       sodipodi:nodetypes="cccccccccc" /><path
       style="fill:#999999;stroke-width:0.264583"
       d="m 95.610439,155.21565 1.581264,-2.71472 1.560273,2.72172 z"
       id="path3"
       sodipodi:nodetypes="cccc" /><path
       style="fill:#999999;stroke-width:0.264583"
       d="m 101.76472,149.68848 v 4.54323 l -4.250123,-7.36443 h 6.869803 c 2.18002,0 2.14338,1.63043 2.14338,2.47313 v 5.80728 h -3.13263 v -5.44089 z"
       id="path4"
       sodipodi:nodetypes="cccsscccc" /><path
       style="fill:#999999;stroke-width:0.264583"
       d="m 106.93718,146.82414 h 7.83494 v 2.78431 h -2.29868 v 5.60101 h -3.17282 v -5.601 h -2.29868 z"
       id="path5"
       sodipodi:nodetypes="ccccccccc" /><path
       style="fill:#999999;stroke-width:0.264583"
       d="m 122.70504,146.77374 v 2.26453 h -4.4967 v 1.03521 h 3.94675 v 1.84397 h -4.01145 v 0.90581 h 4.59375 v 2.36158 h -5.62896 c -1.81163,0 -1.9572,-1.00286 -1.9572,-1.9572 v -4.73933 c 0,-1.58517 0.74406,-1.62561 1.6256,-1.62561 0.88155,0 5.92821,-0.089 5.92821,-0.089 z"
       id="path6"
       sodipodi:nodetypes="ccccccccccsssscc" /><path
       style="fill:#999999;stroke-width:0.264583"
       d="m 131.18085,146.74139 v 2.74978 h -4.75551 v 3.00859 h 4.72316 v 2.78213 h -5.79072 c -2.39393,0 -2.08075,-1.7627 -2.08075,-3.19441 v -2.4022 c 0,-2.62039 0.2588,-2.96523 2.47996,-2.96523 1.18596,0 5.42386,0.0213 5.42386,0.0213 z"
       id="path7"
       sodipodi:nodetypes="ccccccssssc" /></g></svg>
